<svg width="96" height="96" xmlns="http://www.w3.org/2000/svg" xmlns:xlink="http://www.w3.org/1999/xlink" xml:space="preserve" overflow="hidden"><defs><clipPath id="clip0"><rect x="0" y="0" width="96" height="96"/></clipPath></defs><g clip-path="url(#clip0)"><path d="M8 20 8 76 88 76 88 20 8 20ZM49.4 54.9C48.6 55.7 47.4 55.7 46.6 54.9L17 26 79.1 26 49.4 54.9ZM33.5 47.7 14 67.3 14 28.6 33.5 47.7ZM36.4 50.5 43.9 57.8C45.1 58.9 46.6 59.5 48.1 59.5 49.6 59.5 51.1 58.9 52.3 57.8L59.8 50.5 79.2 70 16.9 70 36.4 50.5ZM62.5 47.7 82 28.7 82 67.2 62.5 47.7Z" stroke="#000000" stroke-width="1.33333" fill="#A5A5A5"/></g></svg>